# xmcd CD database file
#
# Track frame offsets:
#	150
#	16648
#	28551
#	43095
#	53727
#	68408
#	87090
#	102359
#	114996
#	122389
#	136692
#	150242
#	164532
#	186660
#	202953
#	214560
#	234872
#	249908
#	277736
#	290928
#	301502
#
# Disc length: 4302 seconds
#
# Revision: 2
# Processed by: cddbd v1.5.2PL0 Copyright (c) Steve Scherf et al.
# Submitted via: CDex 1.70beta2
#
DISCID=0210cc15
DTITLE=Jazz Ladies - Jazz Ladies
DYEAR=2009
DGENRE=Jazz
TTITLE0=Roll'em (Marie Lou Williams)
TTITLE1=Riffin' the blues (Lil Amstrong)
TTITLE2=Imagination (Valaida Snow)
TTITLE3=Pelican Stomp (Cleo Brown)
TTITLE4=Harmony Girts (Marie Lou Williams)
TTITLE5=Body and Soul (Hazel Scott)
TTITLE6=Oops! My Lady (Beryl Booker)
TTITLE7=Operation Mop(Vivien Garry)
TTITLE8=Dorothy Boogie woogie (Dorothy Donnegan)
TTITLE9=After you get Wath you want, you don't want it (Dardanelle)
TTITLE10=Vi Vigor (Int. sweethearts of rhyt.)
TTITLE11=A foggy day (Marian Mc Partland)
TTITLE12=Any thing you can do - I can do better (Norman Carson)
TTITLE13=Hooray fo Hollywood (Lorraine Geller)
TTITLE14=Moonlight saving time (Blossom Dearie)
TTITLE15=Struttin' with some barbecue (Barbara Carroll)
TTITLE16=Pea, bee and lee (Toshiko Akioshi)
TTITLE17=Violets for your furs (Jutta Hipp)
TTITLE18=My reverie (Melba Liston)
TTITLE19=Perdido (Carmen Mc Rae)
TTITLE20=In the kictchen (Shirley Scott)
EXTD=YEAR: 2009
EXTT0=
EXTT1=
EXTT2=
EXTT3=
EXTT4=
EXTT5=
EXTT6=
EXTT7=
EXTT8=
EXTT9=
EXTT10=
EXTT11=
EXTT12=
EXTT13=
EXTT14=
EXTT15=
EXTT16=
EXTT17=
EXTT18=
EXTT19=
EXTT20=
PLAYORDER=
